inDegrees=no
num_controls=7
num_derivatives=13
num_iterations=226
num_multipliers=7
num_parameters=0
num_slacks=7
num_states=26
objective=6.395154
objective_accelerations=0.569332
objective_balance=0.080643
objective_effort=0.504856
objective_height=5.167933
objective_ligament=0.072390
solver_duration=1931.180607
status=Solve_Succeeded
success=true
DataType=double
version=3
OpenSimVersion=4.4-2022-07-23-0e9fedc
endheader
time	/jointset/ground_pelvis/pelvis_tilt/value	/jointset/ground_pelvis/pelvis_tx/value	/jointset/ground_pelvis/pelvis_ty/value	/jointset/hip_r/hip_flexion_r/value	/jointset/hip_r/hip_adduction_r/value	/jointset/hip_r/hip_rotation_r/value	/jointset/back/lumbar_extension/value	/jointset/patellofemoral_r/patellar_flexion_r/value	/jointset/knee_r/knee_flexion_r/value	/jointset/knee_r/knee_adduction_r/value	/jointset/knee_r/knee_rotation_r/value	/jointset/ankle_r/ankle_angle_r/value	/jointset/subtalar_r/subtalar_angle_r/value	/jointset/ground_pelvis/pelvis_tilt/speed	/jointset/ground_pelvis/pelvis_tx/speed	/jointset/ground_pelvis/pelvis_ty/speed	/jointset/hip_r/hip_flexion_r/speed	/jointset/hip_r/hip_adduction_r/speed	/jointset/hip_r/hip_rotation_r/speed	/jointset/back/lumbar_extension/speed	/jointset/patellofemoral_r/patellar_flexion_r/speed	/jointset/knee_r/knee_flexion_r/speed	/jointset/knee_r/knee_adduction_r/speed	/jointset/knee_r/knee_rotation_r/speed	/jointset/ankle_r/ankle_angle_r/speed	/jointset/subtalar_r/subtalar_angle_r/speed	/forceset/tau_hip_flexion_r	/forceset/tau_hip_adduction_r	/forceset/tau_hip_rotation_r	/forceset/tau_knee_flexion_r	/forceset/tau_ankle_angle_r	/forceset/tau_subtalar_angle_r	/forceset/tau_lumbar_extension	lambda_cid13_p0	lambda_cid14_p0	lambda_cid14_p1	lambda_cid14_p2	lambda_cid14_p3	lambda_cid14_p4	lambda_cid14_p5	/jointset/ground_pelvis/pelvis_tilt/accel	/jointset/ground_pelvis/pelvis_tx/accel	/jointset/ground_pelvis/pelvis_ty/accel	/jointset/hip_r/hip_flexion_r/accel	/jointset/hip_r/hip_adduction_r/accel	/jointset/hip_r/hip_rotation_r/accel	/jointset/back/lumbar_extension/accel	/jointset/patellofemoral_r/patellar_flexion_r/accel	/jointset/knee_r/knee_flexion_r/accel	/jointset/knee_r/knee_adduction_r/accel	/jointset/knee_r/knee_rotation_r/accel	/jointset/ankle_r/ankle_angle_r/accel	/jointset/subtalar_r/subtalar_angle_r/accel	gamma_cid13_p0	gamma_cid14_p0	gamma_cid14_p1	gamma_cid14_p2	gamma_cid14_p3	gamma_cid14_p4	gamma_cid14_p5
0.5	-0.1621892112921663	0.03544135537546938	0.8357711977305574	0.8446328653729023	-0.2441384191743687	-0.09304369711476333	-0.3233052273339386	0.7887307598311051	0.7887307598310909	0.06731577152091404	0.1745315171113138	0.2759548234344059	0.04048994309967526	-0.4339640357020765	-0.1341583164245553	-0.4392510467499814	1.838770040769841	-0.02467148194778619	0.393820938368164	-0.6000381199451738	1.925989029391338	1.925989029391348	-0.1808372000011152	2.421560037361795e-06	0.6109749665106715	0.1269391556476783	-0.1168580462436341	-0.01552233202199964	0.01440718457393753	-0.3382228005274695	0.04980763467479571	-0.007748633003919474	0.1615197778355877	-26.08209777890557	-25.55826544026808	-4.018311475507344	-3.265031381578343	5.339241973752185	-662.4519748794372	58.35385952071267	0.2062070716970063	0.334198362861119	-0.4472608006558138	-1.000490389084142	0.09175591838719731	-0.3613004733425458	1.438954461743098	-1.37285180116936	-1.372851801169361	0.511149277537065	-0.02978576248408063	-0.6862329107152729	0.02070727901729049	-1.54408352020749e-07	-1.040682825346458e-07	1.513550086275582e-06	-7.956944762746881e-07	-1.029062619238584e-07	-1.884556702605714e-07	1.08941049026226e-06
0.51	-0.1665177171135458	0.03411668926725332	0.8313573329055195	0.8629675531443407	-0.2443812538130658	-0.08912437196897043	-0.3292330908134922	0.8079191376603027	0.8079191376603009	0.06553408258758232	0.1745314877572597	0.2820291434337899	0.0417591375850029	-0.4316764412672042	-0.1307573935412792	-0.4434210150283653	1.827912347020442	-0.02389446411793189	0.3900199776673127	-0.5854578170286616	1.911414727551754	1.911414727551751	-0.1754984781088749	-5.168016953501466e-06	0.6038052541805418	0.1268793325621052	-0.1234298639342234	-0.01390150573788525	0.0148328901405742	-0.3415645818760642	0.04598793453575546	-0.006679506314055677	0.1673571437550622	-24.88799439435414	-26.96750967183521	-3.901698974891298	-3.168300969145192	5.802448738692279	-666.7976429222813	58.49539795896964	0.2491286317516323	0.3456458997213614	-0.3867649144264541	-1.166696101902544	0.0708151665482909	-0.3933162288462634	1.479082047123859	-1.540460832113737	-1.540460832115732	0.5457308252820979	0.01410182420316815	-0.7449411157875129	-0.02225000028457189	-1.44981553794675e-07	-9.69703890160584e-08	1.41574406438314e-06	-7.52891402944459e-07	-9.894648294016572e-08	-1.691718277654318e-07	1.021420697591832e-06
0.52	-0.1708215283901029	0.0328265537176021	0.8269047883830983	0.8811860065314776	-0.2446162901832115	-0.08524382090226369	-0.3350128484957771	0.8269536241797516	0.8269536241797635	0.06380588030921656	0.1745314519833353	0.2880292461655475	0.04302714925988683	-0.4290251267375607	-0.1272522047115857	-0.4469869862266124	1.815523163909655	-0.02311182823752907	0.3860661225508686	-0.5704169604914062	1.895210767441737	1.895210767441721	-0.1701398690080513	1.137586445801126e-06	0.5961315129853844	0.1267025935589336	-0.1300016816248148	-0.01228067945376817	0.01525859570720928	-0.3449063632246584	0.04216823439671648	-0.005610379624187946	0.1731945096745339	-23.6856930354304	-28.38251656581378	-3.781256125430619	-3.077709233074449	6.265467806737583	-671.2374557616175	58.69971447183917	0.2789510906512422	0.355051552144616	-0.3264613846284682	-1.306788261361744	0.09287952849689754	-0.3918793564610912	1.531065185891738	-1.69878345525586	-1.698783455255858	0.5151267192537321	-0.02700672640604966	-0.7870386837208088	-0.002675904502410176	-1.360778866882131e-07	-8.982057692989518e-08	1.328429157469438e-06	-7.089253059926434e-07	-9.577789555547508e-08	-1.517658543011178e-07	9.589789293650212e-07
0.53	-0.1750970853239981	0.03157193824645255	0.8224196274212875	0.8992731341575506	-0.244843418444785	-0.08140346741376585	-0.340639994743084	0.8458181290840736	0.8458181290840825	0.06213123161390856	0.1745314331999733	0.2939501963283676	0.04429288282353765	-0.4260287509688677	-0.1236581861631141	-0.4499410253945446	1.801658481849234	-0.02231343097677821	0.3819822698120025	-0.554949753544275	1.87743266648543	1.877432666485415	-0.1647898277749282	-2.302676075039748e-06	0.5879813750231722	0.1264235283217339	-0.1364274364053743	-0.01082448135858196	0.01566467395515477	-0.3483742331944437	0.03853707037968619	-0.004635469600706698	0.1788933414395917	-22.47817682138307	-29.74420167730444	-3.696231744651998	-2.977088432758088	6.723710913219247	-675.703643335093	58.87423051028232	0.3185978103653531	0.3634636867702824	-0.2642765963896133	-1.462901079685259	0.07336729114934191	-0.4201661616738747	1.563928762968855	-1.855929176148543	-1.855929176148345	0.545109442143304	0.01327135803025192	-0.8406030107973177	-0.04348940766415396	-1.273400096672186e-07	-8.407281032209405e-08	1.242092402881519e-06	-6.684185972546533e-07	-9.079383094674476e-08	-1.392825923104835e-07	8.979633998149372e-07
0.54	-0.1793409551021292	0.03035364029690207	0.8179080457850946	0.9172142963827579	-0.2450625532404936	-0.07760465803847198	-0.3461105928581509	0.8644971318267661	0.8644971318267728	0.06051011665429133	0.1745314368208225	0.2997873247799003	0.0455552322199494	-0.4226876955846932	-0.1199887003917713	-0.4522711211030303	1.786330083736692	-0.02151313506462069	0.3777572999101569	-0.5391073340433415	1.85811033511591	1.858110335115897	-0.1594331218697367	5.618429618122925e-06	0.5793671707279247	0.1260257601111179	-0.1428531911859392	-0.009368283263397299	0.01607075220310732	-0.3518421031642296	0.03490590636265578	-0.003660559577227813	0.1845921732046445	-21.26884606498839	-31.11234024030781	-3.607620389698956	-2.882427581489203	7.18370844394448	-680.273407958351	59.10830194293711	0.3478870137475665	0.3701449967188389	-0.2016726927391561	-1.59953147178619	0.09325925877823248	-0.420102789056966	1.606107696652209	-2.007629537898309	-2.007629537898301	0.5164596536674031	-0.02473445276326135	-0.879851950327853	-0.02641649918566492	-1.187855599748262e-07	-7.987624296694887e-08	1.156837859377443e-06	-6.31739296753236e-07	-8.38011532390769e-08	-1.322457345034949e-07	8.385258364603801e-07
